<svg version="1.1" xmlns="http://www.w3.org/2000/svg"
xmlns:xlink="http://www.w3.org/1999/xlink">
  <g>
    <g class="main-nav__logo-dot footer__logo-dot">
      <g>
        <path d="M50.686,16.125c-2.485,0-4.499-2.014-4.499-4.499c0,2.485-2.014,4.499-4.499,4.499 c2.485,0,4.499,2.014,4.499,4.499C46.187,18.139,48.2,16.125,50.686,16.125z"/>
      </g>
    </g>
    <g class="main-nav__logo-dot footer__logo-dot">
      <g>
        <path d="M37.904,19.626c-1.519,0-2.749-1.23-2.749-2.749c0,1.519-1.23,2.749-2.749,2.749 c1.519,0,2.749,1.229,2.749,2.749C35.155,20.855,36.386,19.626,37.904,19.626z"/>
      </g>
    </g>
    <g class="main-nav__logo-dot footer__logo-dot">
      <g>
        <path d="M10.734,34.072c-1.519,0-2.749-1.23-2.749-2.75c0,1.52-1.23,2.75-2.749,2.75 c1.519,0,2.749,1.229,2.749,2.748C7.985,35.303,9.215,34.072,10.734,34.072z"/>
      </g>
    </g>
  </g>
</svg>
